<svg width="24" height="24" viewBox="0 0 24 24" fill="none" xmlns="http://www.w3.org/2000/svg">
<path d="M13 18.5H12.5V19V20C12.5 20.2739 12.2739 20.5 12 20.5C11.7261 20.5 11.5 20.2739 11.5 20V16C11.5 15.7261 11.7261 15.5 12 15.5C12.2739 15.5 12.5 15.7261 12.5 16V17V17.5H13H20C20.2739 17.5 20.5 17.7261 20.5 18C20.5 18.2739 20.2739 18.5 20 18.5H13ZM7 11.5H7.5V11V10C7.5 9.72614 7.72614 9.5 8 9.5C8.27386 9.5 8.5 9.72614 8.5 10V14C8.5 14.2739 8.27386 14.5 8 14.5C7.72614 14.5 7.5 14.2739 7.5 14V13V12.5H7H4C3.72614 12.5 3.5 12.2739 3.5 12C3.5 11.7261 3.72614 11.5 4 11.5H7ZM17 6.5H16.5V7V8C16.5 8.27386 16.2739 8.5 16 8.5C15.7261 8.5 15.5 8.27386 15.5 8V4C15.5 3.72614 15.7261 3.5 16 3.5C16.2739 3.5 16.5 3.72614 16.5 4V5V5.5H17H20C20.2739 5.5 20.5 5.72614 20.5 6C20.5 6.27386 20.2739 6.5 20 6.5H17ZM4 18.5C3.72614 18.5 3.5 18.2739 3.5 18C3.5 17.7261 3.72614 17.5 4 17.5H8.5V18.5H4ZM4 6.5C3.72614 6.5 3.5 6.27386 3.5 6C3.5 5.72614 3.72614 5.5 4 5.5H12.5V6.5H4ZM20 11.5C20.2739 11.5 20.5 11.7261 20.5 12C20.5 12.2739 20.2739 12.5 20 12.5H11.5V11.5H20Z" fill="#374B58" stroke="#374B58"/>
</svg>
