<svg width="15" height="14" viewBox="0 0 15 14" fill="none" xmlns="http://www.w3.org/2000/svg">
<path d="M5.51764 4.16211L5.64728 4.14341L5.7057 4.02617L7.42495 0.575805C7.64228 0.140112 8.27167 0.14264 8.48891 0.575965C8.48895 0.576034 8.48898 0.576104 8.48901 0.576173L10.2081 4.02617L10.2665 4.14341L10.3961 4.16211L14.2429 4.71721L14.243 4.71724C14.7304 4.7872 14.919 5.37738 14.5711 5.71269L14.571 5.71276L11.788 8.39703L11.6926 8.48908L11.7153 8.61973L12.3735 12.4114C12.4551 12.8839 11.9491 13.252 11.5136 13.0253L11.5135 13.0253L8.07228 11.2349L7.95689 11.1749L7.84151 11.2349L4.40026 13.0253L4.39948 13.0257C3.96569 13.2534 3.45847 12.8854 3.5403 12.4115C3.5403 12.4115 3.54031 12.4115 3.54032 12.4114L4.19852 8.61973L4.2212 8.48908L4.12576 8.39703L1.34275 5.71276L1.34268 5.71269C0.994762 5.37738 1.18339 4.7872 1.67075 4.71724L1.67093 4.71721L5.51764 4.16211Z" fill="white" stroke="#FFC416" stroke-width="0.5"/>
</svg>
